<?xml version="1.0" encoding="UTF-8" standalone="no"?>
<!DOCTYPE svg PUBLIC "-//W3C//DTD SVG 1.1//EN"
 "http://www.w3.org/Graphics/SVG/1.1/DTD/svg11.dtd">
<!-- Generated by graphviz version 2.43.0 (0)
 -->
<!-- Title: Tree Pages: 1 -->
<svg width="1224pt" height="373pt"
 viewBox="0.00 0.00 1223.50 373.00" xmlns="http://www.w3.org/2000/svg" xmlns:xlink="http://www.w3.org/1999/xlink">
<g id="graph0" class="graph" transform="scale(1 1) rotate(0) translate(4 369)">
<title>Tree</title>
<polygon fill="white" stroke="transparent" points="-4,4 -4,-369 1219.5,-369 1219.5,4 -4,4"/>
<!-- 0 -->
<g id="node1" class="node">
<title>0</title>
<polygon fill="#f4fefc" stroke="black" points="733,-365 458,-365 458,-297 733,-297 733,-365"/>
<text text-anchor="middle" x="595.5" y="-349.8" font-family="Helvetica,sans-Serif" font-size="14.00">ph &lt;= 5.5</text>
<text text-anchor="middle" x="595.5" y="-334.8" font-family="Helvetica,sans-Serif" font-size="14.00">samples = 23</text>
<text text-anchor="middle" x="595.5" y="-319.8" font-family="Helvetica,sans-Serif" font-size="14.00">value = [4, 4, 6, 4, 5]</text>
<text text-anchor="middle" x="595.5" y="-304.8" font-family="Helvetica,sans-Serif" font-size="14.00">class = larutan ph down dimasukkan</text>
</g>
<!-- 1 -->
<g id="node2" class="node">
<title>1</title>
<polygon fill="#defbf5" stroke="black" points="584,-261 309,-261 309,-193 584,-193 584,-261"/>
<text text-anchor="middle" x="446.5" y="-245.8" font-family="Helvetica,sans-Serif" font-size="14.00">nutrisi &lt;= 9.5</text>
<text text-anchor="middle" x="446.5" y="-230.8" font-family="Helvetica,sans-Serif" font-size="14.00">samples = 11</text>
<text text-anchor="middle" x="446.5" y="-215.8" font-family="Helvetica,sans-Serif" font-size="14.00">value = [0, 0, 6, 0, 5]</text>
<text text-anchor="middle" x="446.5" y="-200.8" font-family="Helvetica,sans-Serif" font-size="14.00">class = larutan ph down dimasukkan</text>
</g>
<!-- 0&#45;&gt;1 -->
<g id="edge1" class="edge">
<title>0&#45;&gt;1</title>
<path fill="none" stroke="black" d="M547.12,-296.88C533.13,-287.3 517.73,-276.76 503.27,-266.86"/>
<polygon fill="black" stroke="black" points="505.12,-263.89 494.89,-261.12 501.16,-269.66 505.12,-263.89"/>
<text text-anchor="middle" x="499.49" y="-282" font-family="Helvetica,sans-Serif" font-size="14.00">True</text>
</g>
<!-- 4 -->
<g id="node5" class="node">
<title>4</title>
<polygon fill="#ffffff" stroke="black" points="871,-261 618,-261 618,-193 871,-193 871,-261"/>
<text text-anchor="middle" x="744.5" y="-245.8" font-family="Helvetica,sans-Serif" font-size="14.00">nutrisi &lt;= 9.0</text>
<text text-anchor="middle" x="744.5" y="-230.8" font-family="Helvetica,sans-Serif" font-size="14.00">samples = 12</text>
<text text-anchor="middle" x="744.5" y="-215.8" font-family="Helvetica,sans-Serif" font-size="14.00">value = [4, 4, 0, 4, 0]</text>
<text text-anchor="middle" x="744.5" y="-200.8" font-family="Helvetica,sans-Serif" font-size="14.00">class = larutan a &amp; b dimasukkan</text>
</g>
<!-- 0&#45;&gt;4 -->
<g id="edge4" class="edge">
<title>0&#45;&gt;4</title>
<path fill="none" stroke="black" d="M643.88,-296.88C657.87,-287.3 673.27,-276.76 687.73,-266.86"/>
<polygon fill="black" stroke="black" points="689.84,-269.66 696.11,-261.12 685.88,-263.89 689.84,-269.66"/>
<text text-anchor="middle" x="691.51" y="-282" font-family="Helvetica,sans-Serif" font-size="14.00">False</text>
</g>
<!-- 2 -->
<g id="node3" class="node">
<title>2</title>
<polygon fill="#39e5c5" stroke="black" points="275,-149.5 0,-149.5 0,-96.5 275,-96.5 275,-149.5"/>
<text text-anchor="middle" x="137.5" y="-134.3" font-family="Helvetica,sans-Serif" font-size="14.00">samples = 6</text>
<text text-anchor="middle" x="137.5" y="-119.3" font-family="Helvetica,sans-Serif" font-size="14.00">value = [0, 0, 6, 0, 0]</text>
<text text-anchor="middle" x="137.5" y="-104.3" font-family="Helvetica,sans-Serif" font-size="14.00">class = larutan ph down dimasukkan</text>
</g>
<!-- 1&#45;&gt;2 -->
<g id="edge2" class="edge">
<title>1&#45;&gt;2</title>
<path fill="none" stroke="black" d="M346.18,-192.88C307.03,-179.96 262.57,-165.28 224.77,-152.81"/>
<polygon fill="black" stroke="black" points="225.4,-149.33 214.81,-149.52 223.21,-155.98 225.4,-149.33"/>
</g>
<!-- 3 -->
<g id="node4" class="node">
<title>3</title>
<polygon fill="#e539c0" stroke="black" points="600,-149.5 293,-149.5 293,-96.5 600,-96.5 600,-149.5"/>
<text text-anchor="middle" x="446.5" y="-134.3" font-family="Helvetica,sans-Serif" font-size="14.00">samples = 5</text>
<text text-anchor="middle" x="446.5" y="-119.3" font-family="Helvetica,sans-Serif" font-size="14.00">value = [0, 0, 0, 0, 5]</text>
<text text-anchor="middle" x="446.5" y="-104.3" font-family="Helvetica,sans-Serif" font-size="14.00">class = larutan a, b, &amp; ph up dimasukkan</text>
</g>
<!-- 1&#45;&gt;3 -->
<g id="edge3" class="edge">
<title>1&#45;&gt;3</title>
<path fill="none" stroke="black" d="M446.5,-192.88C446.5,-182.33 446.5,-170.6 446.5,-159.85"/>
<polygon fill="black" stroke="black" points="450,-159.52 446.5,-149.52 443,-159.52 450,-159.52"/>
</g>
<!-- 5 -->
<g id="node6" class="node">
<title>5</title>
<polygon fill="#ffffff" stroke="black" points="871,-157 618,-157 618,-89 871,-89 871,-157"/>
<text text-anchor="middle" x="744.5" y="-141.8" font-family="Helvetica,sans-Serif" font-size="14.00">ph &lt;= 7.0</text>
<text text-anchor="middle" x="744.5" y="-126.8" font-family="Helvetica,sans-Serif" font-size="14.00">samples = 8</text>
<text text-anchor="middle" x="744.5" y="-111.8" font-family="Helvetica,sans-Serif" font-size="14.00">value = [4, 4, 0, 0, 0]</text>
<text text-anchor="middle" x="744.5" y="-96.8" font-family="Helvetica,sans-Serif" font-size="14.00">class = larutan a &amp; b dimasukkan</text>
</g>
<!-- 4&#45;&gt;5 -->
<g id="edge5" class="edge">
<title>4&#45;&gt;5</title>
<path fill="none" stroke="black" d="M744.5,-192.88C744.5,-184.78 744.5,-175.98 744.5,-167.47"/>
<polygon fill="black" stroke="black" points="748,-167.3 744.5,-157.3 741,-167.3 748,-167.3"/>
</g>
<!-- 8 -->
<g id="node9" class="node">
<title>8</title>
<polygon fill="#3c39e5" stroke="black" points="1215.5,-149.5 889.5,-149.5 889.5,-96.5 1215.5,-96.5 1215.5,-149.5"/>
<text text-anchor="middle" x="1052.5" y="-134.3" font-family="Helvetica,sans-Serif" font-size="14.00">samples = 4</text>
<text text-anchor="middle" x="1052.5" y="-119.3" font-family="Helvetica,sans-Serif" font-size="14.00">value = [0, 0, 0, 4, 0]</text>
<text text-anchor="middle" x="1052.5" y="-104.3" font-family="Helvetica,sans-Serif" font-size="14.00">class = larutan a, b, &amp; ph down dimasukkan</text>
</g>
<!-- 4&#45;&gt;8 -->
<g id="edge8" class="edge">
<title>4&#45;&gt;8</title>
<path fill="none" stroke="black" d="M844.5,-192.88C883.52,-179.96 927.84,-165.28 965.51,-152.81"/>
<polygon fill="black" stroke="black" points="967.05,-155.99 975.44,-149.52 964.85,-149.34 967.05,-155.99"/>
</g>
<!-- 6 -->
<g id="node7" class="node">
<title>6</title>
<polygon fill="#e58139" stroke="black" points="734,-53 481,-53 481,0 734,0 734,-53"/>
<text text-anchor="middle" x="607.5" y="-37.8" font-family="Helvetica,sans-Serif" font-size="14.00">samples = 4</text>
<text text-anchor="middle" x="607.5" y="-22.8" font-family="Helvetica,sans-Serif" font-size="14.00">value = [4, 0, 0, 0, 0]</text>
<text text-anchor="middle" x="607.5" y="-7.8" font-family="Helvetica,sans-Serif" font-size="14.00">class = larutan a &amp; b dimasukkan</text>
</g>
<!-- 5&#45;&gt;6 -->
<g id="edge6" class="edge">
<title>5&#45;&gt;6</title>
<path fill="none" stroke="black" d="M696.58,-88.95C682.53,-79.25 667.19,-68.68 653.27,-59.07"/>
<polygon fill="black" stroke="black" points="655.03,-56.03 644.81,-53.24 651.06,-61.8 655.03,-56.03"/>
</g>
<!-- 7 -->
<g id="node8" class="node">
<title>7</title>
<polygon fill="#7be539" stroke="black" points="1008.5,-53 752.5,-53 752.5,0 1008.5,0 1008.5,-53"/>
<text text-anchor="middle" x="880.5" y="-37.8" font-family="Helvetica,sans-Serif" font-size="14.00">samples = 4</text>
<text text-anchor="middle" x="880.5" y="-22.8" font-family="Helvetica,sans-Serif" font-size="14.00">value = [0, 4, 0, 0, 0]</text>
<text text-anchor="middle" x="880.5" y="-7.8" font-family="Helvetica,sans-Serif" font-size="14.00">class = larutan ph up dimasukkan</text>
</g>
<!-- 5&#45;&gt;7 -->
<g id="edge7" class="edge">
<title>5&#45;&gt;7</title>
<path fill="none" stroke="black" d="M792.07,-88.95C806.02,-79.25 821.24,-68.68 835.06,-59.07"/>
<polygon fill="black" stroke="black" points="837.25,-61.82 843.46,-53.24 833.25,-56.07 837.25,-61.82"/>
</g>
</g>
</svg>
